<svg width="59" height="135" viewBox="0 0 59 135" fill="none" xmlns="http://www.w3.org/2000/svg">
<g clip-path="url(#clip0_79_9)">
<path d="M54.2316 35.105C52.9492 38.5204 51.6539 44.5393 50.3715 48.1931C48.4056 53.7945 48.6509 60.0053 47.2558 64.0877C45.5717 69.0153 46.0733 74.8269 44.5718 78.1617C43.2287 81.1447 41.7815 84.0678 39.207 87.3962C35.8086 91.7899 31.2646 93.734 21.7272 98.8829C16.0048 101.261 13.6398 102.337 12.0352 102.872C11.0686 103.194 9.79264 103.619 8.47803 104.058" stroke="#0059FF" stroke-width="2" stroke-linecap="round"/>
<path d="M0.100586 105.346C0.525901 103.213 1.81473 97.6392 2.14016 93.6535C2.48409 89.4412 3.52888 86.0268 4.07341 83.0142C4.45663 80.894 3.96708 89.004 2.79102 97.143C1.81019 103.931 2.45915 108.775 3.63521 110.595C8.67132 115.425 19.3686 122.069 29.3539 127.008C32.9594 128.758 33.5973 128.971 34.2547 129.19" stroke="#0059FF" stroke-width="2" stroke-linecap="round"/>
</g>
<defs>
<clipPath id="clip0_79_9">
<rect width="59" height="135" fill="white"/>
</clipPath>
</defs>
</svg>
