<svg width="50" height="42" viewBox="0 0 50 42" fill="none" xmlns="http://www.w3.org/2000/svg">
<g clip-path="url(#clip0_94_68)">
<path d="M12.5 10.5C9.18479 10.5 6.00537 11.6064 3.66117 13.5755C1.31696 15.5447 0 18.2152 0 21C0 23.7848 1.31696 26.4557 3.66117 28.4248C6.00537 30.3939 9.18479 31.5 12.5 31.5C18.75 31.5 25 28.875 28.125 21C25 13.125 18.75 10.5 12.5 10.5ZM12.5 15.75C12.5 15.75 18.75 15.75 21.875 21C18.75 26.25 12.5 26.25 12.5 26.25C10.8424 26.25 9.25269 25.6968 8.08058 24.7122C6.90848 23.7277 6.25 22.3924 6.25 21C6.25 19.6076 6.90848 18.2723 8.08058 17.2878C9.25269 16.3032 10.8424 15.75 12.5 15.75Z" fill="#878787"/>
<path d="M37.5 10.5C40.8152 10.5 43.9946 11.6064 46.3388 13.5755C48.683 15.5447 50 18.2152 50 21C50 23.7848 48.683 26.4557 46.3388 28.4248C43.9946 30.3939 40.8152 31.5 37.5 31.5C31.25 31.5 25 28.875 21.875 21C25 13.125 31.25 10.5 37.5 10.5ZM37.5 15.75C37.5 15.75 31.25 15.75 28.125 21C31.25 26.25 37.5 26.25 37.5 26.25C39.1576 26.25 40.7473 25.6968 41.9194 24.7122C43.0915 23.7277 43.75 22.3924 43.75 21C43.75 19.6076 43.0915 18.2723 41.9194 17.2878C40.7473 16.3032 39.1576 15.75 37.5 15.75Z" fill="#878787"/>
</g>
<defs>
<clipPath id="clip0_94_68">
<rect width="50" height="42" fill="white"/>
</clipPath>
</defs>
</svg>
